<svg xmlns="http://www.w3.org/2000/svg" viewBox="0 0 640 510"><rect width="640" height="510" fill="#d4f675"/><g fill="none" stroke="#10191b" stroke-width="5"><path d="M36 76h150v75h76v86h109v-78h102v132h130M36 432h86v-73h114v-86h103v80h75v-112h190M116 23v93m96-93v70m199-70v82m99-82v67M109 487v-73m110 73v-55m139 55v-76m132 76v-67"/><rect x="169" y="132" width="298" height="245" rx="8"/><path d="M204 169h88v72h-88zm148 0h80v72h-80zm-148 121h88v53h-88zm148 0h80v53h-80z"/></g><g fill="#ff714b"><circle cx="292" cy="205" r="18"/><circle cx="392" cy="205" r="18"/><circle cx="292" cy="317" r="18"/><circle cx="392" cy="317" r="18"/></g><text x="55" y="57" font-family="monospace" font-size="16" fill="#10191b">SILICON / DESIGN CHOICE</text></svg>
